HIERARCHY
ROOT SimulationBone
{
	OFFSET 0.000000 0.000000 0.000000
	CHANNELS 6 Xposition Yposition Zposition Zrotation Yrotation Xrotation 
	JOINT Hips
	{
		OFFSET 0.000000 0.000000 0.000000
		CHANNELS 6 Xposition Yposition Zposition Zrotation Yrotation Xrotation 
		JOINT LeftUpLeg
		{
			OFFSET 0.103454 1.857841 10.548502
			CHANNELS 3 Zrotation Yrotation Xrotation
			JOINT LeftLeg
			{
				OFFSET 43.500000 -0.000034 -0.000004
				CHANNELS 3 Zrotation Yrotation Xrotation
				JOINT LeftFoot
				{
					OFFSET 42.372192 0.000027 -0.000002
					CHANNELS 3 Zrotation Yrotation Xrotation
					JOINT LeftToe
					{
						OFFSET 17.300003 0.000001 0.000001
						CHANNELS 3 Zrotation Yrotation Xrotation
						End Site
						{
							OFFSET 0.000000 0.000000 0.000000
						}
					}
				}
			}
		}
		JOINT RightUpLeg
		{
			OFFSET 0.103461 1.857837 -10.548502
			CHANNELS 3 Zrotation Yrotation Xrotation
			JOINT RightLeg
			{
				OFFSET 43.500046 -0.000034 0.000013
				CHANNELS 3 Zrotation Yrotation Xrotation
				JOINT RightFoot
				{
					OFFSET 42.372261 0.000004 0.000013
					CHANNELS 3 Zrotation Yrotation Xrotation
					JOINT RightToe
					{
						OFFSET 17.299986 -0.000008 0.000013
						CHANNELS 3 Zrotation Yrotation Xrotation
						End Site
						{
							OFFSET 0.000000 0.000000 0.000000
						}
					}
				}
			}
		}
		JOINT Spine
		{
			OFFSET 6.901964 -2.603740 0.000003
			CHANNELS 3 Zrotation Yrotation Xrotation
			JOINT Spine1
			{
				OFFSET 12.588108 0.000020 -0.000003
				CHANNELS 3 Zrotation Yrotation Xrotation
				JOINT Spine2
				{
					OFFSET 12.343194 -0.000020 0.000000
					CHANNELS 3 Zrotation Yrotation Xrotation
					JOINT Neck
					{
						OFFSET 25.832893 -0.000004 0.000001
						CHANNELS 3 Zrotation Yrotation Xrotation
						JOINT Head
						{
							OFFSET 11.766617 0.000023 0.000000
							CHANNELS 3 Zrotation Yrotation Xrotation
							End Site
							{
								OFFSET 0.000000 0.000000 0.000000
							}
						}
					}
					JOINT LeftShoulder
					{
						OFFSET 19.745911 -1.480362 6.000106
						CHANNELS 3 Zrotation Yrotation Xrotation
						JOINT LeftArm
						{
							OFFSET 11.284124 -0.000010 -0.000029
							CHANNELS 3 Zrotation Yrotation Xrotation
							JOINT LeftForeArm
							{
								OFFSET 33.000050 0.000006 0.000043
								CHANNELS 3 Zrotation Yrotation Xrotation
								JOINT LeftHand
								{
									OFFSET 25.200006 0.000015 0.000002
									CHANNELS 3 Zrotation Yrotation Xrotation
									End Site
									{
										OFFSET 0.000000 0.000000 0.000000
									}
								}
							}
						}
					}
					JOINT RightShoulder
					{
						OFFSET 19.746103 -1.480366 -6.000076
						CHANNELS 3 Zrotation Yrotation Xrotation
						JOINT RightArm
						{
							OFFSET 11.284135 -0.000031 -0.000006
							CHANNELS 3 Zrotation Yrotation Xrotation
							JOINT RightForeArm
							{
								OFFSET 33.000095 0.000024 0.000006
								CHANNELS 3 Zrotation Yrotation Xrotation
								JOINT RightHand
								{
									OFFSET 25.199774 0.000153 0.000421
									CHANNELS 3 Zrotation Yrotation Xrotation
									End Site
									{
										OFFSET 0.000000 0.000000 0.000000
									}
								}
							}
						}
					}
				}
			}
		}
	}
}
MOTION
Frames: 5
Frame Time: 0.033333
-53.845367 0.000000 -327.014648 0.000000 72.913917 0.000000 -3.645186 88.892616 0.581182 90.301122 1.071634 -168.609911 147.878786 -5.038810 174.131875 -49.701285 -3.096117 -8.707329 74.905510 4.717447 -5.672154 21.454562 0.003109 0.000016 177.407935 -1.318802 179.914682 -27.530860 3.541935 3.098551 89.184526 -2.446241 -1.441157 21.454555 -0.003109 -0.000001 9.144374 0.247133 0.488915 8.277955 0.458735 0.994233 7.959886 0.464591 0.991434 7.295630 0.130061 4.478743 -20.560416 -2.683090 5.778276 -161.108904 -70.341612 -20.831235 14.942915 64.246528 24.437054 -71.183904 -18.227306 2.803401 -5.439027 -5.027436 44.249244 -173.088905 75.848137 8.554027 -9.743983 -66.547045 -19.471635 -82.716856 9.412109 -2.642813 3.624283 -7.087881 -49.785949 
-54.000978 0.000000 -328.087769 0.000000 75.278128 0.000000 -3.252395 88.815086 0.496841 90.110269 0.403155 -171.603333 149.907353 -3.544911 174.176422 -41.052651 -3.629325 -8.522687 74.305396 4.330297 -6.532636 21.454562 0.003111 0.000019 178.105201 -0.627114 179.204466 -27.913240 3.448539 3.111060 89.905910 -2.402458 -1.169985 21.454551 -0.003105 -0.000000 9.203614 0.065657 0.628869 8.394821 0.085589 1.260826 8.076822 0.093068 1.260272 6.873768 -0.437904 4.493678 -20.577285 -2.486859 5.646298 -161.902408 -70.205424 -20.014870 17.367884 64.408329 25.700112 -73.637526 -16.881757 2.812864 -5.668829 -4.642534 45.053591 -174.511074 76.339576 7.104527 -11.756876 -66.765625 -20.784290 -84.145041 8.454836 -2.636285 1.786816 -6.226953 -48.011411 
-54.050647 0.000000 -329.232447 0.000000 77.562382 0.000000 -2.778901 88.533020 0.336505 90.504291 -0.050573 -174.546670 152.072154 -2.072296 174.903646 -34.647589 -3.501649 -9.275647 73.762717 5.112184 -5.636480 21.454558 0.003115 0.000018 178.675358 -0.190393 178.605581 -29.714680 3.310153 3.028045 90.563357 -2.274477 -0.753354 21.454553 -0.003102 0.000000 9.356659 -0.090351 0.716578 8.699034 -0.234202 1.424327 8.381051 -0.225722 1.425716 6.440536 -0.490295 4.765496 -20.353614 -2.433125 5.890355 -162.164510 -70.142423 -19.745302 17.829172 64.144806 26.364366 -75.340197 -15.900289 2.816772 -5.458747 -5.067480 44.673696 -177.547489 76.441558 4.004709 -14.324997 -65.324660 -21.838459 -85.726456 7.363551 -2.631372 0.363236 -4.792215 -46.178359 
-53.999440 0.000000 -330.443431 0.000000 79.754269 0.000000 -2.425817 88.157379 0.119192 91.007809 -0.780800 -177.445953 153.749116 -0.622807 174.117190 -32.965430 -2.855675 -10.261890 75.008618 6.885471 -1.846664 21.454557 0.003122 0.000019 178.400361 0.855096 178.565051 -33.198882 3.395562 2.517425 90.770557 -1.877946 -0.416418 21.454553 -0.003090 -0.000001 9.507934 -0.327055 0.679802 8.999089 -0.705885 1.332130 8.681054 -0.697967 1.336357 6.072737 -0.390127 5.213809 -19.936031 -2.788717 6.492639 -162.811711 -69.796371 -19.081527 16.514672 63.354321 25.451013 -76.495428 -14.953818 2.799889 -6.606168 -5.764319 44.554608 178.142385 76.388638 -0.396862 -17.239940 -62.964249 -22.473757 -86.964625 6.661053 -2.636757 -1.260454 -4.644361 -45.288457 
-53.852425 0.000000 -331.715468 0.000000 81.843467 0.000000 -1.997059 87.293953 -0.117697 92.078457 -1.344071 179.855108 154.078098 0.199209 173.498198 -36.518132 -2.161263 -10.717725 77.478346 7.514071 -0.520425 21.454557 0.003096 0.000017 176.892815 1.769098 179.549636 -40.258224 2.911484 1.678789 90.120282 -1.267295 -0.251546 21.454553 -0.003090 0.000002 9.744902 -0.554151 0.581128 9.471821 -1.153917 1.114991 9.153720 -1.147290 1.121926 6.146292 -0.392475 5.741696 -20.011710 -3.015870 7.136511 -164.377518 -69.473645 -17.468364 13.826109 62.307369 23.583846 -76.824089 -14.483339 2.780942 -7.097076 -5.765220 43.941926 173.702297 76.136651 -4.935642 -19.596487 -60.397519 -22.955089 -87.986709 6.198957 -2.649551 -2.693146 -4.302835 -45.328445 
